<?xml version="1.0" encoding="UTF-8" standalone="no"?>
<!-- Created with Inkscape (http://www.inkscape.org/) -->

<svg
   width="210mm"
   height="297mm"
   viewBox="0 0 210 297"
   version="1.1"
   id="svg1"
   xml:space="preserve"
   inkscape:version="1.3.2 (091e20e, 2023-11-25)"
   sodipodi:docname="logo.svg"
   xmlns:inkscape="http://www.inkscape.org/namespaces/inkscape"
   xmlns:sodipodi="http://sodipodi.sourceforge.net/DTD/sodipodi-0.dtd"
   xmlns="http://www.w3.org/2000/svg"
   xmlns:svg="http://www.w3.org/2000/svg"><sodipodi:namedview
     id="namedview1"
     pagecolor="#ffffff"
     bordercolor="#000000"
     borderopacity="0.25"
     inkscape:showpageshadow="2"
     inkscape:pageopacity="0.0"
     inkscape:pagecheckerboard="0"
     inkscape:deskcolor="#d1d1d1"
     inkscape:document-units="mm"
     inkscape:zoom="0.51654111"
     inkscape:cx="430.74984"
     inkscape:cy="609.82562"
     inkscape:window-width="1824"
     inkscape:window-height="963"
     inkscape:window-x="0"
     inkscape:window-y="25"
     inkscape:window-maximized="0"
     inkscape:current-layer="g15"
     showguides="true" /><defs
     id="defs1" /><g
     inkscape:label="Warstwa 1"
     inkscape:groupmode="layer"
     id="layer1"><g
       id="g8"><g
         id="g2"
         transform="translate(341.1878,91.273171)"><g
           id="g3"><g
             id="g4"
             transform="translate(-4.5478484,-21.534617)"><g
               id="g5"><g
                 id="g1" /></g><g
               id="g6"><g
                 id="g7"><g
                   id="g9" /><g
                   id="g11"><g
                     id="g13"><g
                       id="g10"><g
                         id="g12"><g
                           id="g14"><g
                             id="g16"><g
                               id="g15"><g
                                 id="g20"><g
                                   id="g19"><g
                                   id="g18"><g
                                   id="g17"><g
                                   id="g22"><g
                                   id="g21" /></g></g></g></g></g><g
                                 id="g23" /><g
                                 id="g24"><g
                                   id="g25"><g
                                   id="g26"><path
                                   id="path1-5"
                                  fill='currentColor'
      stroke='#4e905a'
                                   transform="translate(6.7333333e-6)"
                                   d="m -195.11784,126.09472 0.16272,-14.88281 2.37534,-0.0761 2.37534,-0.0761 v 14.95889 14.95888 h -2.53806 -2.53806 z m -49.68448,48.06158 c -11.68373,-0.63455 -22.42739,-2.97612 -33.33374,-7.26506 -6.85718,-2.6966 -17.31695,-8.38758 -23.19561,-12.62033 -3.61333,-2.60167 -10.14181,-7.66251 -10.14222,-7.86219 -1.7e-4,-0.0882 2.23225,-0.12633 4.96094,-0.0847 4.4611,0.068 5.02795,0.12799 5.62272,0.59491 12.87998,10.1111 29.3023,17.49595 44.62831,20.06861 6.7522,1.13344 10.73484,1.45521 17.94565,1.44985 13.37825,-0.01 25.59222,-2.4677 37.52642,-7.55128 8.03096,-3.42093 13.84977,-6.79899 20.74447,-12.043 l 3.23756,-2.46245 4.83223,0.0108 4.83223,0.0109 -1.19063,1.07745 c -1.80438,1.63286 -10.3841,8.04041 -13.23958,9.88765 -18.9503,12.2591 -40.6318,18.01609 -63.22875,16.78885 z m 13.36521,-14.64937 c -3.17878,-1.38867 -4.47661,-5.00847 -2.90657,-8.10679 0.92388,-1.8232 2.3327,-2.71734 4.49874,-2.85527 0.91453,-0.0582 2.08384,0.0331 2.59846,0.20293 1.0106,0.33353 2.29166,1.23204 2.29166,1.60733 0,0.12755 -0.41931,0.55174 -0.9318,0.94263 -0.87824,0.66987 -0.95999,0.6852 -1.42239,0.26674 -0.74379,-0.67312 -2.19247,-0.81319 -3.24496,-0.31375 -1.14964,0.54554 -1.80918,1.65595 -1.80918,3.04596 0,0.86939 0.18168,1.28578 0.90571,2.07584 0.78946,0.86145 1.05892,0.9883 2.0993,0.9883 0.93667,0 1.35431,-0.15399 1.94035,-0.71545 l 0.74677,-0.71545 1.04173,0.87458 1.04172,0.87458 -0.71532,0.71533 c -0.39343,0.39342 -1.12708,0.88736 -1.63033,1.09764 -1.12904,0.47174 -3.44058,0.47936 -4.50389,0.0148 z m -39.81979,-4.13045 v -4.23334 h -1.5875 -1.5875 v -1.32931 -1.32932 l 4.43177,0.0725 4.43177,0.0725 0.0807,1.11084 0.0807,1.11084 -1.5359,0.0798 -1.5359,0.0798 -0.0727,4.29948 -0.0727,4.29948 h -1.31636 -1.31637 z m 17.2587,-1.25678 0.0715,-5.4901 3.9026,-0.0732 3.90261,-0.0732 v 1.32999 1.32999 h -2.66181 -2.6618 l 0.0821,0.99219 0.0821,0.99219 2.18282,-0.0664 2.18281,-0.0664 v 1.04749 1.04749 l -2.05052,0.0773 -2.05052,0.0773 -0.0821,0.99219 -0.0821,0.99219 h 2.66181 2.6618 v 1.19062 1.19063 h -4.10641 -4.10641 z m 40.21666,0 0.0715,-5.4901 0.75957,-0.0868 c 0.41776,-0.0478 1.04284,-0.0157 1.38906,0.0712 0.59715,0.14988 0.62949,0.26648 0.62949,2.26962 v 2.11163 h 1.98438 1.98437 v -2.26346 -2.26345 l 1.20578,0.0806 1.20579,0.0806 0.051,5.42396 0.051,5.42396 -1.25677,0.0806 -1.25677,0.0806 v -2.13116 -2.13116 h -1.98437 -1.98438 v 2.11666 2.11667 h -1.46058 -1.46057 z m -43.37389,-8.77403 c -1.0482,-0.0856 -2.04115,-0.29135 -2.20655,-0.4572 -0.5002,-0.50158 0.33813,-1.70703 1.90279,-2.73606 1.77115,-1.16482 2.87474,-3.1223 2.83192,-5.02305 -0.0154,-0.68281 0.12083,-1.51951 0.3027,-1.85933 0.20469,-0.38247 0.27711,-1.13051 0.1901,-1.96352 -0.23564,-2.25587 -1.48908,-7.43033 -2.65564,-10.963 -1.07336,-3.25042 -1.10502,-3.44673 -1.09465,-6.78682 0.0116,-3.73797 -0.008,-3.66086 2.33893,-8.99584 0.61819,-1.40498 1.06753,-3.00626 1.33642,-4.7625 0.2228,-1.4552 0.46895,-2.943486 0.547,-3.307286 0.0781,-0.3638 -0.217,0.0529 -0.65567,0.92604 -0.43867,0.873126 -0.80158,1.825626 -0.80645,2.116666 -0.0135,0.80312 -0.41208,-0.0231 -0.63825,-1.32292 -0.10128,-0.582076 -0.72746,-2.725196 -1.3915,-4.762496 -1.15938,-3.55695 -1.21254,-3.85926 -1.33773,-7.60677 l -0.13037,-3.9026 h -1.11961 c -1.03623,0 -1.13795,0.064 -1.36594,0.8599 -0.22477,0.78462 -0.34971,0.86738 -1.42733,0.94547 -1.51275,0.10961 -1.8228,0.11363 -4.27586,0.0555 l -2.03651,-0.0483 -0.29911,-0.90631 -0.29911,-0.90631 h -10.2561 -10.25611 l -0.15924,10.30489 c -0.17414,11.269616 -0.17202,11.255266 -1.76078,11.913346 -0.49584,0.20538 -2.06496,0.28202 -4.61071,0.22519 -3.60364,-0.0804 -3.89891,-0.12603 -4.46098,-0.68873 l -0.60192,-0.60259 -0.0707,-21.645056 -0.0707,-21.645059 0.65333,-0.704954 0.65333,-0.704955 h 4.34895 c 5.45328,0 5.49024,0.01972 5.7682,3.077698 0.10407,1.144922 0.19769,5.56567 0.20804,9.82388 l 0.0188,7.74221 10.12031,-0.0693 10.12031,-0.0693 0.17566,-1.5875 c 0.0966,-0.87312 0.43472,-2.24234 0.75136,-3.04271 0.31663,-0.80036 0.79838,-2.7649 1.07055,-4.36562 0.53531,-3.14842 1.16683,-5.14974 2.92208,-9.26042 1.02825,-2.408077 1.13895,-2.883589 1.23188,-5.291666 0.0781,-2.02467 0.20982,-2.770066 0.56093,-3.175 0.25236,-0.291042 0.68807,-0.975651 0.96825,-1.521354 0.28018,-0.545703 0.57452,-0.992188 0.65409,-0.992188 0.0796,0 0.67514,-0.72845 1.3235,-1.618778 l 1.17882,-1.618778 0.4663,1.552633 c 1.36124,4.532445 1.6306,6.136991 1.31747,7.847994 -0.16529,0.903175 -0.70304,2.431874 -1.19501,3.397108 l -0.89447,1.754971 0.87592,1.023154 c 0.89521,1.045674 1.06136,1.892536 0.64197,3.272114 l -0.20109,0.66146 -0.27607,-0.66146 c -0.31308,-0.750109 -2.09725,-2.551629 -2.31319,-2.335686 -0.38334,0.383335 -1.4662,5.575286 -1.62043,7.769376 l -0.17486,2.48767 0.99336,1.21226 c 1.04846,1.27951 1.16668,1.75484 0.84187,3.38482 l -0.20107,1.00906 1.00734,-0.083 1.00734,-0.083 0.17279,-2.24896 c 0.095,-1.23693 0.37199,-3.02287 0.61545,-3.96875 0.79759,-3.09871 2.99899,-10.698041 3.33408,-11.509376 l 0.32782,-0.79375 0.19102,0.79375 c 0.10506,0.436562 0.20511,4.045226 0.22233,8.019256 0.0205,4.74187 0.12225,7.16931 0.29589,7.06199 0.16499,-0.10197 0.27678,-2.97105 0.297,-7.62238 0.0178,-4.102378 0.10713,-8.707585 0.19844,-10.233796 l 0.16601,-2.77493 0.51079,1.18743 c 0.28094,0.653086 1.3913,2.815491 2.46747,4.805343 1.63848,3.029571 1.91039,3.704403 1.67202,4.149793 -0.42901,0.80162 -0.34339,1.75842 0.21957,2.45364 l 0.50422,0.62269 -2.25406,4.44776 c -1.23973,2.44627 -2.19713,4.50469 -2.12756,4.57426 0.18529,0.18529 0.68012,-0.64344 2.97548,-4.98325 1.13526,-2.14643 2.13908,-3.9026 2.23071,-3.9026 0.18595,0 3.45866,7.74691 3.45866,8.18708 0,0.15378 0.17331,0.27959 0.38513,0.27959 0.46177,0 0.35477,-0.33479 -1.68967,-5.28712 -1.11851,-2.70939 -1.29793,-3.35109 -0.99872,-3.57187 0.51536,-0.38028 0.98034,-1.32504 0.98034,-1.99189 0,-0.3118 -0.38269,-0.94471 -0.85041,-1.40645 l -0.85042,-0.839547 -0.10579,-6.27173 c -0.10574,-6.268622 -0.10548,-6.272124 0.51968,-7.062965 0.58744,-0.743114 0.74044,-0.792124 2.51573,-0.805873 1.73067,-0.0134 1.95962,0.05016 2.71198,0.752972 0.76753,0.716986 0.82173,0.889481 0.82173,2.615404 0,1.679015 -0.0604,1.887379 -0.66146,2.281196 -0.49115,0.321815 -0.66146,0.665318 -0.66146,1.334143 0,0.645651 0.18733,1.048087 0.66146,1.421042 0.61401,0.482981 0.66146,0.683637 0.66146,2.797328 0,1.341628 0.10869,2.277025 0.26458,2.277025 0.15589,0 0.26459,-0.935397 0.26459,-2.277025 0,-2.113691 0.0474,-2.314347 0.66145,-2.797328 0.83502,-0.656821 0.90176,-2.034503 0.1323,-2.730855 -0.43827,-0.396624 -0.52917,-0.814908 -0.52917,-2.434948 0,-1.802243 0.0572,-2.006417 0.7276,-2.596465 0.62062,-0.546244 1.00287,-0.641635 2.59972,-0.648767 1.62087,-0.0072 1.94931,0.07382 2.44739,0.604004 0.55922,0.595266 0.57529,0.798436 0.57529,7.276041 0,4.459212 -0.0915,6.663676 -0.27661,6.663676 -0.15214,0 -0.56886,0.292242 -0.92604,0.649432 -0.83727,0.83726 -0.83529,1.90574 0.005,2.78297 l 0.65458,0.68323 -1.58062,4.08218 c -0.86934,2.2452 -1.58062,4.24324 -1.58062,4.44009 0,0.91533 0.60475,-0.2672 2.13258,-4.1701 0.91171,-2.32896 1.73362,-4.23447 1.82648,-4.23447 0.0928,0 0.44127,0.56555 0.77426,1.25677 1.10231,2.28823 4.3592,7.84589 4.44572,7.58633 0.0467,-0.14027 -0.82119,-1.979 -1.92877,-4.08605 -2.6393,-5.021 -2.60055,-4.90885 -1.92849,-5.58091 0.53884,-0.53884 0.55458,-0.77487 0.20097,-3.0126 -0.023,-0.14552 1.01693,-2.288642 2.31095,-4.762496 l 2.35276,-4.497917 0.14633,10.186453 c 0.0805,5.60256 0.17161,10.246 0.20249,10.31876 0.0309,0.0728 0.17157,-0.0463 0.31264,-0.26459 0.15055,-0.23297 0.25815,-3.61645 0.26053,-8.19263 0.003,-6.642638 0.0581,-7.738454 0.36953,-7.408335 0.82817,0.8779 3.83079,12.114385 4.22192,15.799405 l 0.28786,2.71198 h 1.03026 c 0.87713,0 1.00205,-0.0688 0.84043,-0.46302 -0.1044,-0.25466 -0.24808,-0.93927 -0.31929,-1.52136 -0.11648,-0.95216 -0.0169,-1.18605 0.99226,-2.33158 l 1.12173,-1.27325 -0.15736,-1.90175 c -0.21177,-2.55907 -1.55854,-8.384042 -1.93845,-8.384042 -0.16638,0 -0.75906,0.598674 -1.31707,1.330386 -0.84395,1.106666 -1.04583,1.251266 -1.20049,0.859896 -0.41781,-1.057307 -0.19973,-2.06209 0.66736,-3.074806 l 0.87061,-1.016816 -1.04902,-2.104005 c -1.60702,-3.223191 -1.63511,-5.382474 -0.1365,-10.490382 l 0.56567,-1.928019 0.77923,0.737394 c 0.90362,0.855107 3.10662,3.858783 3.10662,4.235716 0,0.140868 0.23813,0.471623 0.52917,0.735012 0.45346,0.410378 0.52916,0.814908 0.52916,2.82763 0,1.551334 0.14215,2.682707 0.41869,3.33243 1.60459,3.769955 2.90545,7.810556 3.5536,11.037856 0.40915,2.03729 0.99246,4.33365 1.29623,5.10302 0.31673,0.80218 0.55232,2.00223 0.55232,2.81342 0,1.24328 0.0721,1.43387 0.59531,1.57409 0.79093,0.21196 8.90259,0.20783 15.06895,-0.008 l 4.94864,-0.17295 0.0784,-9.46263 0.0784,-9.462623 0.64143,-0.682427 c 0.6384,-0.679199 0.66177,-0.682428 4.94064,-0.682428 4.23917,0 4.31057,0.0096 5.11325,0.684978 l 0.81405,0.684978 v 21.626192 21.626186 l -0.682,0.64144 c -0.6537,0.61482 -0.85686,0.64493 -4.89691,0.72581 l -4.2149,0.0844 -0.79164,-0.79163 c -0.5414,-0.54141 -0.79987,-1.06987 -0.8177,-1.67188 -0.0143,-0.48414 -0.0519,-1.11837 -0.0834,-1.40942 -0.0316,-0.29104 -0.0794,-4.607046 -0.10622,-9.591136 l -0.0488,-9.06198 h -10.39633 -10.39633 l -0.25315,0.8599 c -0.23176,0.78724 -0.36493,0.87355 -1.57607,1.0216 -0.7276,0.0889 -1.49388,0.0718 -1.70285,-0.0381 -0.20896,-0.10986 -0.64785,-0.0777 -0.97531,0.0715 -0.34222,0.15592 -0.79944,0.17731 -1.07528,0.0503 -0.26394,-0.12153 -0.89661,-0.22648 -1.40593,-0.23322 -0.81439,-0.0108 -0.95688,-0.11706 -1.18183,-0.88151 -0.25964,-0.88235 -0.92675,-1.25666 -1.9061,-1.0695 -0.43471,0.0831 -0.49984,0.49601 -0.64014,4.05832 -0.15241,3.86999 -0.18919,4.06657 -1.52135,8.13269 -0.75084,2.29177 -1.36517,4.504346 -1.36517,4.916836 0,0.4125 -0.0789,0.82885 -0.17523,0.92523 -0.14537,0.14537 -0.92467,-1.56808 -1.7716,-3.895216 -0.38388,-1.05481 -0.3958,-0.1962 -0.0197,1.41617 0.21637,0.927466 0.51261,2.526926 0.65833,3.554346 0.17392,1.22633 0.71659,2.88616 1.57971,4.8318 2.65029,5.97428 2.74601,8.66977 0.56066,15.78905 -0.7518,2.44914 -1.66914,5.94568 -2.03854,7.77008 -0.64787,3.19973 -0.65479,3.3357 -0.19567,3.84318 0.34802,0.38467 0.46139,0.89196 0.42173,1.88721 -0.0841,2.1115 0.95422,3.97847 2.96465,5.33051 1.31718,0.88583 1.6015,1.21165 1.66973,1.91348 0.0964,0.99188 0.0262,1.01781 -3.38952,1.251 -1.59659,0.109 -2.69402,0.0368 -3.78322,-0.24902 -0.84385,-0.2214 -2.1748,-0.40255 -2.95767,-0.40255 -2.05206,0 -2.35004,-0.3816 -2.11621,-2.71003 0.10126,-1.00823 0.33877,-2.4985 0.52781,-3.31173 0.22406,-0.96387 0.25996,-1.69886 0.10313,-2.11136 -0.26965,-0.70923 -0.0522,-1.26597 0.79332,-2.03116 0.65543,-0.59315 0.71858,-2.31333 0.27189,-7.40548 -0.2939,-3.35045 -0.54829,-4.09764 -2.00924,-5.90152 -1.97317,-2.43633 -2.1506,-4.61635 -0.85128,-10.4593 0.91785,-4.12751 0.95728,-3.67897 -0.67412,-7.66747 -0.5191,-1.26908 -1.25026,-3.471736 -1.6248,-4.894786 -0.80425,-3.05566 -0.77405,-3.59889 0.54902,-9.87569 0.50103,-2.37695 0.85226,-4.38043 0.78051,-4.45219 -0.35342,-0.35341 -0.69428,0.73516 -1.52222,4.86135 l -0.90254,4.49792 -0.95862,-1.98438 c -0.93231,-1.92989 -1.76534,-5.05937 -1.76534,-6.63188 0,-0.42705 -0.11907,-0.77645 -0.26459,-0.77645 -0.14552,0 -0.26694,0.0893 -0.26982,0.19844 -0.0631,2.38761 -1.38948,6.99943 -2.37804,8.26823 -0.47217,0.606 -0.51577,0.61709 -0.52011,0.13229 -0.007,-0.83366 -1.6563,-8.17428 -1.89781,-8.44903 -0.51568,-0.58666 -0.44899,0.24093 0.27773,3.4469 1.36119,6.00494 1.50365,7.43294 0.96502,9.67322 -0.53958,2.24425 -1.91885,6.348526 -2.80594,8.349616 l -0.61134,1.37905 0.84896,3.91262 c 1.30777,6.02717 1.10418,8.00191 -1.10712,10.73849 -0.49403,0.61139 -1.02659,1.35963 -1.18346,1.66275 -0.37816,0.73071 -0.84307,5.37753 -0.84307,8.42662 0,2.28388 0.0437,2.48028 0.68592,3.08082 0.55719,0.52105 0.6625,0.81815 0.56113,1.58304 -0.0686,0.51788 0.035,1.76804 0.2304,2.77812 0.19535,1.01009 0.35956,2.63793 0.36491,3.61742 0.009,1.64051 -0.0372,1.78984 -0.58559,1.89429 -1.38905,0.26459 -6.72148,0.95149 -7.08175,0.91224 -0.216,-0.0235 -1.25035,-0.11282 -2.29855,-0.19844 z m 7.5272,-28.25389 c -0.0477,-1.42638 -0.0869,-0.33124 -0.0871,2.43366 -2.6e-4,2.76489 0.0387,3.93194 0.0867,2.59343 0.0479,-1.33851 0.0481,-3.6007 4.7e-4,-5.02709 z m 20.37234,0.9123 c -0.049,-1.20055 -0.0891,-0.21828 -0.0891,2.18281 0,2.4011 0.0401,3.38336 0.0891,2.18282 0.049,-1.20055 0.049,-3.16508 0,-4.36563 z M -248.2175,87.709294 c -1.23839,-3.10779 -1.6308,-3.85349 -1.89095,-3.59335 -0.17588,0.17589 0.10359,1.03071 0.83604,2.55717 1.16762,2.43338 1.89725,3.15006 1.05491,1.03618 z m 18.05665,-0.13229 c 1.19417,-2.53934 1.47769,-3.35715 1.21923,-3.51689 -0.13795,-0.0853 -0.48797,0.3884 -0.77784,1.05256 -1.84594,4.22958 -1.71513,3.85339 -1.33999,3.85339 0.13496,0 0.53933,-0.62508 0.8986,-1.38906 z m -9.4235,-8.99275 c -0.0633,-0.32912 -0.11747,-0.12215 -0.12041,0.45994 -0.003,0.58208 0.0489,0.85136 0.11507,0.5984 0.0662,-0.25297 0.0686,-0.72922 0.005,-1.05834 z m -77.23379,48.349516 c -0.0291,-7.63984 -0.0589,-14.33711 -0.0661,-14.88281 l -0.0132,-0.99219 6.54844,-0.0708 6.54843,-0.0708 v 2.51817 2.51816 h -3.96874 -3.96875 v 3.56373 3.56373 l 3.24114,0.0743 3.24115,0.0743 0.0131,2.18281 0.0131,2.18282 h -3.25424 -3.25424 v 6.61458 6.61458 h -2.51355 -2.51354 z m 19.48118,-0.99219 0.16272,-14.88281 2.37534,-0.0761 2.37534,-0.0761 v 14.95889 14.95888 h -2.53806 -2.53806 z m 17.08423,2.4474 v -12.43542 h -2.91041 -2.91042 v -2.51354 -2.51354 h 8.20208 8.20209 v 2.51354 2.51354 h -2.91042 -2.91042 v 12.43542 12.43541 h -2.38125 -2.38125 z m 67.46875,-2.51885 v -14.96351 l 2.4474,0.0761 2.44739,0.0761 0.0309,5.95312 c 0.017,3.27422 0.0468,8.89682 0.0661,12.49467 l 0.0352,6.54155 4.0349,0.073 4.03489,0.073 -0.0337,2.24895 -0.0337,2.24896 -6.51476,0.0708 -6.51476,0.0708 z m 28.76061,14.7871 c -0.10209,-0.10209 -0.18561,-6.83327 -0.18561,-14.95818 v -14.77257 h 6.62451 6.62451 l -0.0761,2.44739 -0.0761,2.4474 -3.9026,0.0732 -3.9026,0.0732 v 3.68086 3.68086 l 3.30729,-0.15627 3.30729,-0.15627 v 2.44507 2.44507 l -3.37344,-0.0794 -3.37344,-0.0794 v 6.47197 6.47197 l -2.39407,0.0754 c -1.31674,0.0414 -2.4776,-0.008 -2.57969,-0.11024 z m 16.20438,0.10102 c -0.008,-0.0364 -0.0602,-6.76341 -0.11637,-14.94896 l -0.1022,-14.88281 h 6.74088 6.74088 l -0.0761,2.44739 -0.0761,2.4474 -4.03489,0.073 -4.0349,0.073 v 3.56499 3.56498 h 3.43958 3.43959 v 2.24896 2.24896 h -3.43959 -3.43958 v 4.23333 4.23333 h 4.23333 4.23334 v 2.38125 2.38125 h -6.74688 c -3.71078,0 -6.75325,-0.0298 -6.76104,-0.0661 z m -171.87177,-34.5925 c -0.31253,-0.1261 -0.66971,-0.38644 -0.79375,-0.57854 -0.12403,-0.1921 -0.28504,-3.4449 -0.3578,-7.228436 l -0.13229,-6.87917 -2.45784,-0.13229 c -1.7879,-0.0962 -2.52601,-0.24047 -2.70793,-0.52916 -0.13755,-0.21829 -0.25191,-1.55774 -0.25414,-2.97657 l -0.004,-2.57968 h 7.40833 7.40834 v 9.89835 9.898356 l -0.81405,0.68497 c -0.77278,0.65025 -0.96394,0.68413 -3.77032,0.66821 -1.62594,-0.009 -3.21197,-0.11994 -3.5245,-0.24604 z m 11.84216,-0.10642 c -1.37316,-0.76108 -1.33261,-0.0667 -1.34267,-22.992266 l -0.009,-21.377134 0.64943,-0.649432 c 0.63552,-0.635519 0.73896,-0.649252 4.82864,-0.641017 4.36191,0.0088 4.71973,0.09147 5.32662,1.230962 0.2266,0.42545 0.30781,6.135331 0.30781,21.642831 0,22.975206 0.0424,22.321316 -1.48511,22.902066 -1.03536,0.39365 -7.51984,0.30275 -8.27535,-0.11601 z m 13.80245,-0.14183 c -1.3674,-0.8512 -1.25131,2.11129 -1.16865,-29.820566 0.0354,-13.672972 0.06,-14.352731 0.54227,-14.948952 0.48573,-0.600566 0.66382,-0.627886 4.6237,-0.7093 4.10192,-0.08433 4.1212,-0.08199 4.78647,0.583286 l 0.66797,0.667962 v 21.560814 21.560806 l -0.63791,0.74236 c -0.63484,0.73879 -0.65553,0.74273 -4.29948,0.81841 -3.2843,0.0682 -3.74944,0.0213 -4.51437,-0.45482 z m 140.46268,-0.15551 -0.83593,-0.70338 V 83.374274 61.68993 l 0.64943,-0.649432 c 0.63398,-0.633981 0.74757,-0.649432 4.77453,-0.649432 4.02695,0 4.14054,0.01545 4.77452,0.649432 l 0.64943,0.649432 v 21.560814 21.560806 l -0.63791,0.74236 -0.63792,0.74236 -3.95011,0.0846 c -3.94506,0.0844 -3.95118,0.0836 -4.78604,-0.61884 z m 13.6958,-0.10683 -0.7734,-0.77339 -0.009,-4.05525 c -0.005,-2.230386 -0.0345,-11.953286 -0.0661,-21.606446 l -0.0575,-17.551193 0.74236,-0.638907 c 0.71578,-0.61604 0.88905,-0.638908 4.84067,-0.638908 3.99852,0 4.11413,0.01581 4.74775,0.649432 l 0.64943,0.649432 v 21.293764 c 0,12.91827 -0.0996,21.555716 -0.25322,21.959766 -0.45922,1.20784 -1.47531,1.4851 -5.44254,1.4851 h -3.60536 z m 13.7406,0.38375 c -0.38475,-0.21537 -0.83123,-0.76936 -0.99219,-1.23108 -0.19245,-0.55208 -0.29264,-4.04166 -0.29264,-10.192706 v -9.35322 h 7.40833 7.40834 v 2.59526 c 0,3.42813 -0.0495,3.4875 -2.96489,3.55306 l -2.30238,0.0518 -0.0784,6.81492 c -0.0979,8.511966 0.18647,7.987566 -4.38445,8.086466 -2.34684,0.0508 -3.27257,-0.0282 -3.80177,-0.32448 z M -346.39856,82.361954 c 0,-0.82068 0.14288,-1.63501 0.3175,-1.80964 0.20143,-0.20142 1.21708,-0.3175 2.77813,-0.3175 h 2.46062 v -2.99659 c 0,-2.7902 0.0422,-3.03621 0.61237,-3.57187 0.56157,-0.52758 0.88777,-0.57529 3.93306,-0.57529 2.95884,0 3.39668,0.0598 4.01785,0.54837 l 0.69714,0.54837 v 4.7433 c 0,4.34419 -0.039,4.7426 -0.46302,4.73503 -0.25467,-0.005 -3.58842,0.0359 -7.40834,0.0898 l -6.94531,0.0981 z m 199.16969,1.38281 c -0.0539,-0.11146 -0.13196,-2.19578 -0.17348,-4.63181 l -0.0755,-4.42916 0.79637,-0.79637 0.79636,-0.79636 h 3.29833 c 4.53014,0 4.51798,-0.0107 4.6365,4.07712 l 0.0889,3.06663 h 2.32609 c 2.77158,0 2.98304,0.15933 2.86847,2.16134 l -0.0807,1.41054 -7.19167,0.0704 c -3.95542,0.0387 -7.23577,-0.0208 -7.28967,-0.13229 z m -62.62464,-8.76414 c -0.15655,-0.29252 -0.28464,-0.69134 -0.28464,-0.88627 0,-0.19493 1.30969,-1.74022 2.91042,-3.43397 l 2.91041,-3.07954 v -5.860451 -5.860452 l 6.06366,-6.26725 c 3.33501,-3.446987 8.931,-9.094983 12.43555,-12.551103 l 6.37189,-6.283854 h 1.98424 c 1.75228,0 1.98425,-0.05707 1.98425,-0.488146 0,-0.268481 0.47365,-1.220981 1.05256,-2.116667 l 1.05256,-1.62852 h 2.2399 2.23989 l 0.8704,1.455208 0.8704,1.455209 h 3.27447 3.27448 l 1.74385,-1.693242 1.74386,-1.693241 -0.87166,-1.717307 c -0.99046,-1.951352 -1.04025,-1.709896 0.98002,-4.751939 l 1.18607,-1.785937 h 2.70607 2.70608 l 1.35614,2.269134 c 0.74589,1.248023 1.35415,2.408883 1.3517,2.579687 -0.002,0.170804 -0.63894,1.322584 -1.41443,2.559512 l -1.40998,2.248958 -2.9858,0.04143 -2.9858,0.04144 -1.76742,1.753883 -1.76743,1.753883 -3.59261,0.16239 -3.59262,0.162389 -0.90722,1.349584 -0.90722,1.349583 -2.15905,0.07675 c -2.08341,0.07406 -2.18474,0.04982 -2.8924,-0.692172 -0.71106,-0.745542 -0.7901,-0.763968 -2.59924,-0.60592 l -1.86588,0.163005 -3.62422,3.637 c -1.99333,2.00035 -3.62422,3.696991 -3.62422,3.770313 0,0.07332 4.13945,0.133312 9.19878,0.133312 h 9.19878 l 2.87745,-2.886395 2.87744,-2.886395 7.44779,-0.09017 7.4478,-0.09017 0.81537,-0.912812 c 1.0801,-1.20918 2.36151,-1.263327 3.52469,-0.148936 0.63434,0.60774 0.79731,0.986924 0.79731,1.855109 0,1.056535 -0.707,2.249348 -1.33322,2.249348 -0.14913,0 -0.25185,1.340274 -0.2484,3.241145 0.005,2.809172 0.0748,3.329304 0.52329,3.902604 0.28457,0.363802 0.52004,0.998039 0.52328,1.409415 0.007,0.939236 -1.2845,2.294752 -2.18704,2.294752 -0.84259,0 -1.93676,-0.873904 -2.14801,-1.715607 l -0.16706,-0.665643 h -15.68475 c -10.86192,0 -15.77247,0.08772 -15.97002,0.285268 -0.1569,0.156897 -0.6272,0.246194 -1.04511,0.198437 -0.59233,-0.06769 -0.77736,-0.237642 -0.83936,-0.770936 -0.0437,-0.376258 0.0753,-0.792977 0.26459,-0.926041 0.20394,-0.143392 7.07968,-0.188052 16.88056,-0.109645 15.45453,0.123636 16.57774,0.101998 17.16745,-0.330729 0.34705,-0.254661 0.9126,-0.463021 1.25677,-0.463021 0.62171,0 0.62578,-0.01981 0.62578,-3.042708 0,-2.739357 -0.0469,-3.042708 -0.4703,-3.042708 -0.67645,0 -1.64038,-0.743566 -1.9211,-1.481908 l -0.24134,-0.634759 h -7.07072 -7.07073 l -3.08065,3.042708 -3.08065,3.042709 -10.02965,0.03135 c -5.51631,0.01724 -10.15779,0.01677 -10.31441,-10e-4 -0.15662,-0.01781 -3.63919,3.376604 -7.73906,7.543154 l -7.4543,7.575544 v 4.653438 4.653438 l 1.44897,-1.430978 c 1.42005,-1.402404 1.46386,-1.423356 2.19409,-1.049295 l 0.74512,0.381683 -5.74591,5.642475 c -5.23916,5.14485 -5.77101,5.59557 -6.03055,5.11062 z m -65.48778,-5.31248 -5.53605,-5.540767 0.71932,-0.327746 c 0.68306,-0.311223 0.79218,-0.255798 2.16439,1.099368 l 1.44507,1.427115 v -4.657151 -4.657152 l -7.60677,-7.566805 -7.60677,-7.566806 -10.05417,-0.01103 -10.05417,-0.01103 -3.13333,-3.035666 -3.13333,-3.035665 -7.18542,0.01019 -7.18542,0.01019 -0.53033,0.849704 c -0.31561,0.505663 -0.87803,0.952204 -1.38906,1.102856 l -0.85873,0.253153 v 2.569478 c 0,2.97738 0.11281,3.406508 0.89548,3.406508 0.31585,0 0.83444,0.182227 1.15242,0.404948 0.50391,0.352951 2.61609,0.403404 16.4497,0.392928 8.72935,-0.0066 16.23087,-0.08388 16.67003,-0.171715 0.67857,-0.135713 0.84535,-0.05683 1.11057,0.525278 0.24413,0.535801 0.23895,0.773111 -0.0238,1.089684 -0.38222,0.460546 -1.35658,0.536303 -1.75633,0.136556 -0.33461,-0.334617 -5.10662,-0.412118 -20.14444,-0.327158 -11.01809,0.06225 -11.70782,0.09385 -11.70782,0.536441 0,1.316633 -1.92218,2.316857 -3.16954,1.649294 -0.68777,-0.368084 -1.41433,-1.961126 -1.20099,-2.633283 0.0829,-0.261168 0.38579,-0.6876 0.67312,-0.947627 0.46325,-0.419231 0.52241,-0.822088 0.52241,-3.557012 v -3.084236 l -0.78155,-0.577829 c -0.83461,-0.617051 -1.25875,-1.951433 -0.93974,-2.956521 0.22992,-0.724426 1.63351,-1.58997 2.58043,-1.591258 0.46,-6.26e-4 1.10315,0.338982 1.75186,0.925052 l 1.02501,0.926042 h 7.27818 7.27817 l 3.04773,2.910417 3.04772,2.910416 h 9.21778 9.21777 l -3.82961,-3.836458 -3.82961,-3.836458 h -2.18014 c -2.03351,0 -2.20928,0.04449 -2.61354,0.661458 -0.40428,0.617011 -0.57996,0.661458 -2.61447,0.661458 h -2.18107 l -0.94792,-1.427667 -0.94791,-1.427668 -3.38903,-0.193263 -3.38902,-0.193263 -1.85208,-1.73236 -1.85208,-1.732361 -2.79078,0.0598 c -2.40588,0.05155 -2.84779,-0.006 -3.20419,-0.417022 -0.57093,-0.658491 -2.60399,-4.210713 -2.60399,-4.54976 0,-0.152047 0.59992,-1.292134 1.33315,-2.533525 l 1.33316,-2.257075 2.70174,0.0077 2.70174,0.0077 1.08337,1.513642 c 2.18978,3.059475 2.14894,2.870141 1.07777,4.997204 l -0.93766,1.861951 1.81691,1.626722 1.81691,1.626723 h 3.04559 3.04558 l 1.00806,-1.452074 1.00805,-1.452075 2.1267,-0.0031 2.1267,-0.0031 1.11445,1.695077 c 0.61294,0.932293 1.11445,1.884793 1.11445,2.116667 0,0.349568 0.3513,0.421589 2.0564,0.421589 h 2.0564 l 12.49489,12.501562 12.49488,12.501562 8e-4,5.931498 7.9e-4,5.931495 3.07073,3.13688 c 2.92319,2.98615 3.05241,3.16448 2.68934,3.71129 -0.20977,0.31593 -0.49107,0.61097 -0.62511,0.65565 -0.13404,0.0447 -2.73494,-2.4121 -5.77977,-5.45953 z m -74.90245,0.32248 c -0.2986,-5.171242 0.0285,-14.92972 0.65731,-19.610272 2.31086,-17.200916 8.00645,-32.220563 17.91329,-47.238542 6.31825,-9.5779715 12.09316,-16.328006 19.67041,-22.991859 10.1503,-8.926738 21.97267,-16.082232 33.90938,-20.523665 11.4177,-4.248317 22.10347,-6.530495 33.88775,-7.237463 12.32429,-0.739364 25.87206,1.133312 38.56537,5.3308 9.61809,3.180562 20.30253,8.536495 28.575,14.324178 14.21802,9.947389 25.45287,22.4986645 34.67492,38.737892 6.98811,12.305468 11.69575,26.946294 13.3567,41.539582 0.47036,4.132646 0.63857,16.921339 0.25888,19.682009 l -0.18599,1.35236 h -3.05096 -3.05095 l 0.15237,-0.76188 c 0.0838,-0.41904 0.2323,-3.18724 0.32998,-6.151565 0.17507,-5.312811 -0.12143,-12.003186 -0.70788,-15.973007 -0.51926,-3.514991 -1.817,-10.325003 -2.36974,-12.435417 -4.95188,-18.906779 -17.66686,-39.6533781 -32.2814,-52.672453 -6.82485,-6.079783 -12.06363,-9.810983 -19.62443,-13.97703 -8.11391,-4.47082 -14.04619,-6.969555 -22.04991,-9.287643 -19.1794,-5.554861 -38.27501,-5.280937 -58.18805,0.834698 -13.0416,4.0053 -25.31955,10.738759 -36.3802,19.9516 -3.18343,2.651598 -9.97913,9.4925285 -12.33851,12.4206205 -13.64736,16.9370295 -21.51063,33.4588235 -24.42923,51.3291655 -1.0823,6.626848 -1.35881,10.601439 -1.30689,18.785416 l 0.0495,7.805205 -2.92073,0.0746 -2.92073,0.0746 z m 82.18273,-1.72648 c -0.0115,-0.39923 -0.33361,-2.304226 -0.71583,-4.233328 -0.38222,-1.929102 -0.70964,-4.448442 -0.72761,-5.598533 l -0.0326,-2.091075 -9.26042,-9.007529 c -5.09323,-4.954141 -10.86776,-10.623431 -12.83229,-12.598423 -1.96453,-1.974992 -5.4378,-5.396432 -7.71836,-7.603201 -2.28057,-2.206769 -4.339,-4.418003 -4.5743,-4.913852 -0.2353,-0.495849 -1.83376,-2.290172 -3.55213,-3.987383 -2.46587,-2.435497 -3.05032,-3.147253 -2.7732,-3.377243 0.39939,-0.331471 0.63709,-0.153893 4.34267,3.244309 2.03136,1.862865 2.32377,2.239141 2.20664,2.839573 -0.19117,0.980052 0.43528,1.678253 1.6688,1.859935 0.91496,0.134763 1.64083,0.710982 5.52813,4.388465 2.46118,2.328334 5.14241,4.927162 5.95828,5.775174 l 1.48341,1.541841 0.16733,-1.012674 c 0.092,-0.556971 0.16863,-1.693638 0.17023,-2.525927 l 0.003,-1.513252 -4.19285,-4.175289 c -3.95812,-3.941536 -5.03843,-5.218656 -4.70038,-5.556706 0.26257,-0.262573 1.3033,0.602925 4.99063,4.150333 l 3.63802,3.499973 v -2.749568 -2.749569 l -6.35,-6.160788 -6.35,-6.1607871 v -2.327629 c 0,-1.746225 -0.0991,-2.409902 -0.39687,-2.657006 -0.47789,-0.3966099 -0.51426,-1.0997069 -0.0794,-1.5345839 0.46435,-0.464347 1.12382,-0.388405 1.64696,0.189657 0.35982,0.397599 0.39726,0.622466 0.1733,1.040939 -0.15712,0.2935809 -0.28568,1.4273899 -0.28568,2.5195759 v 1.985794 l 2.57642,2.5062751 c 1.41703,1.378451 2.66114,2.453907 2.7647,2.389903 0.10357,-0.064 0.19705,-3.8809381 0.20775,-8.4820741 0.0174,-7.483258 -0.0275,-8.417557 -0.42544,-8.857294 -0.36703,-0.4055604 -0.3909,-0.6100724 -0.13642,-1.1685974 0.2533,-0.555945 0.46189,-0.662205 1.16646,-0.594238 0.73044,0.07046 0.8712,0.198833 0.94684,0.86347 0.0495,0.434873 -0.0677,0.9036864 -0.26459,1.0583344 -0.28721,0.22562 -0.32864,1.968 -0.22113,9.300685 l 0.13229,9.0230551 2.91042,2.726109 c 1.60073,1.499359 3.01939,2.910696 3.15259,3.136303 0.13445,0.227726 0.21784,3.651948 0.18746,7.697712 l -0.0547,7.287516 9.291,9.095292 c 5.11005,5.002411 9.38157,8.991005 9.49225,8.863542 0.11069,-0.127464 0.41744,-0.827064 0.68168,-1.554669 0.51458,-1.416991 2.26387,-4.630208 2.5207,-4.630208 0.0853,0 0.41837,1.003731 0.74012,2.230514 0.48556,1.851326 0.53083,2.349429 0.2663,2.93002 -0.24729,0.542728 -0.2479,0.81291 -0.003,1.20548 0.19101,0.305854 0.31599,1.569546 0.31599,3.195076 0,2.682236 -0.004,2.699983 -1.68634,6.948902 -0.92748,2.34289 -1.75152,4.438389 -1.83119,4.656669 -0.0817,0.22386 -0.15397,0.0804 -0.16575,-0.329 z m 55.83668,-2.44912 c -0.63568,-1.74625 -1.44542,-3.750482 -1.79941,-4.45385 -0.59312,-1.178522 -0.635,-1.510633 -0.53379,-4.233333 0.0604,-1.624966 0.20203,-3.290495 0.31472,-3.701176 0.12699,-0.462789 0.0838,-0.972997 -0.11365,-1.341895 -0.25461,-0.475757 -0.23499,-0.917637 0.0978,-2.201915 0.22899,-0.883692 0.41634,-1.857417 0.41634,-2.163834 0,-1.287312 0.80766,-0.360409 2.28108,2.617879 0.46795,0.945885 0.92999,2.076979 1.02676,2.513541 0.0968,0.436563 0.23091,0.966337 0.29809,1.177276 0.0789,0.247553 3.44793,-2.941262 9.5029,-8.994436 l 9.38076,-9.37796 v -7.413867 -7.413866 l 3.175,-3.166728 3.175,-3.166729 0.0186,-8.2062191 c 0.0102,-4.51342 0.11547,-8.444344 0.23387,-8.735385 0.15326,-0.376744 0.0645,-0.69416 -0.30815,-1.10197 -0.97657,-1.0686934 0.17179,-2.5974924 1.3377,-1.7808614 0.67066,0.469749 0.73648,1.223409 0.15743,1.8024614 -0.35573,0.355728 -0.40784,1.425653 -0.3779,7.7579611 0.0191,4.0399279 0.11902,7.821575 0.22204,8.403658 l 0.18731,1.058333 2.56729,-2.513541 2.56728,-2.5135421 -0.006,-1.852083 c -0.003,-1.018646 -0.0311,-2.254069 -0.0616,-2.7453839 -0.0667,-1.073576 0.58917,-1.6614321 1.33358,-1.195326 0.60761,0.38045 0.73107,1.514286 0.21181,1.9452329 -0.30983,0.257139 -0.41025,0.873758 -0.41025,2.51914 v 2.178661 l -6.35,6.2606681 -6.35,6.26067 v 2.664275 2.664275 l 3.99525,-3.793814 c 2.19738,-2.086598 4.12222,-3.793815 4.27743,-3.793815 0.95154,0 0.0679,1.155989 -3.87712,5.072127 l -4.39556,4.363364 v 2.49215 c 0,1.370683 0.0893,2.48755 0.19844,2.481927 0.10914,-0.0056 2.87538,-2.609587 6.14719,-5.786586 5.8411,-5.671816 5.95946,-5.768602 6.54013,-5.347589 0.32525,0.235826 0.5951,0.516757 0.59968,0.624292 0.005,0.107534 -7.35739,7.521639 -16.35991,16.475787 l -16.36823,16.28027 -0.18492,2.309628 c -0.10171,1.270296 -0.42427,3.381191 -0.71679,4.690878 -0.29253,1.309688 -0.61341,3.095625 -0.71308,3.96875 l -0.18122,1.5875 z m -37.39666,-3.241146 c -3.1984,-6.174622 -4.01668,-9.379899 -3.00364,-11.765459 0.52156,-1.228188 0.52541,-1.951885 0.018,-3.389943 -0.21983,-0.623079 -0.36797,-1.164602 -0.32918,-1.203385 0.0388,-0.03878 1.19075,0.967624 2.55994,2.23646 1.86071,1.724341 2.49712,2.482798 2.5199,3.003158 0.0168,0.382902 0.23528,0.922489 0.48559,1.199083 0.40506,0.447588 0.45512,1.235392 0.45512,7.162795 0,5.269863 -0.0714,6.659895 -0.34213,6.659895 -0.18817,0 -1.2518,-1.756171 -2.36363,-3.902604 z m 17.52242,-2.607639 v -6.510243 l 0.68096,-0.809263 c 0.45742,-0.54362 0.62949,-0.99041 0.52418,-1.361111 -0.12601,-0.443556 0.32417,-1.002127 2.29407,-2.846446 1.34796,-1.26203 2.48286,-2.262576 2.52199,-2.223437 0.0391,0.03914 -0.10899,0.502338 -0.32918,1.02933 -0.50715,1.213782 -0.50826,2.454863 -0.003,3.885581 0.54059,1.532211 0.49832,3.043155 -0.13949,4.986038 -0.83523,2.54421 -4.73546,10.359794 -5.16989,10.359794 -0.31889,0 -0.37917,-1.034891 -0.37917,-6.510243 z m -51.75117,3.836632 c -0.35045,-0.387244 -0.50403,-0.949669 -0.50403,-1.845839 0,-1.253891 -0.0557,-1.34494 -2.05156,-3.352553 -1.99873,-2.010528 -2.08023,-2.060923 -3.16537,-1.957438 -0.99191,0.09459 -1.19159,0.01306 -1.82444,-0.744986 l -0.71062,-0.851205 -2.57354,0.0045 -2.57355,0.0045 -0.77962,0.945813 c -0.74686,0.906069 -0.85121,0.945814 -2.48343,0.945814 h -1.70382 l -0.92275,-1.442499 c -0.50752,-0.793374 -0.92276,-1.654118 -0.92276,-1.912765 0,-0.258646 0.38695,-1.038042 0.8599,-1.73199 l 0.85989,-1.261723 1.89065,-5.11e-4 1.89065,-5.12e-4 0.84891,1.322917 0.84891,1.322916 h 2.55946 c 2.23203,0 2.61741,-0.06769 3.01253,-0.529166 0.32673,-0.381589 0.78051,-0.529167 1.6271,-0.529167 0.96441,0 1.27576,0.12936 1.74396,0.724573 0.56613,0.719722 0.61562,1.689505 0.14193,2.781156 -0.13643,0.314393 -0.0837,0.463021 0.16432,0.463021 0.20089,0 1.30638,0.94669 2.45666,2.103755 1.8399,1.850749 2.22099,2.114239 3.1688,2.19093 1.07682,0.08713 1.077,0.08734 0.35716,0.400428 -1.31054,0.570011 -1.23006,2.689737 0.12275,3.233346 0.49112,0.197352 0.38108,0.243067 -0.6183,0.256853 -0.9141,0.01261 -1.34083,-0.121425 -1.71979,-0.540174 z m 86.56102,0.320086 c -0.0805,-0.130273 0.0162,-0.299251 0.21492,-0.375507 1.01843,-0.39081 0.53003,-2.821525 -0.56889,-2.831269 -0.39174,-0.0035 -0.4003,-0.04064 -0.06,-0.260532 0.21828,-0.141064 0.70756,-0.258303 1.0873,-0.260532 0.52029,-0.0031 1.23844,-0.576355 2.91422,-2.326449 1.99084,-2.079112 2.19954,-2.391386 1.9922,-2.980948 -0.32725,-0.930528 0.39652,-2.561956 1.28674,-2.90042 1.06889,-0.40639 1.60801,-0.319076 2.46087,0.398558 0.71109,0.598346 1.01334,0.661458 3.16772,0.661458 h 2.38162 l 0.84891,-1.322916 0.84891,-1.322917 h 1.82193 1.82193 l 0.92206,1.256771 c 0.50713,0.691224 0.925,1.466962 0.92861,1.723862 0.004,0.2569 -0.42001,1.109556 -0.94138,1.894792 -0.93584,1.409469 -0.96859,1.430097 -2.56464,1.615339 -1.72866,0.200631 -1.7538,0.187418 -2.98684,-1.569437 -0.29553,-0.421081 -0.7735,-0.520025 -2.94594,-0.609841 l -2.59318,-0.10721 -0.53279,0.874424 c -0.45779,0.75136 -0.69983,0.885734 -1.71979,0.954784 -1.08216,0.07326 -1.36553,0.257091 -3.20822,2.081323 -1.93388,1.914511 -2.01542,2.044174 -1.88707,3.00107 0.19614,1.462299 -0.55837,2.642456 -1.6894,2.642456 -0.46936,0 -0.91925,-0.106587 -0.99976,-0.236859 z m -66.37774,-12.132412 c -0.0625,-0.109141 -0.44198,-1.36665 -0.84321,-2.794464 l -0.72951,-2.596026 0.73393,-0.766052 c 0.90683,-0.946525 1.16324,-0.836095 3.01095,1.296746 l 1.36348,1.57388 -1.21787,1.742177 c -1.1152,1.595301 -1.9642,2.160776 -2.31777,1.543739 z m 46.11998,-1.402964 c -0.65485,-0.874624 -1.15496,-1.675781 -1.11137,-1.78035 0.29744,-0.713456 2.90678,-3.742343 3.22803,-3.747045 0.55346,-0.0081 1.63576,1.592468 1.32777,1.963576 -0.133,0.160263 -0.43728,1.239172 -0.67616,2.397575 -0.68557,3.324487 -1.04043,3.473988 -2.76827,1.166244 z m -28.14129,-0.01478 c -0.3504,-0.409233 -0.6717,-0.519035 -1.20607,-0.412161 -0.62868,0.125736 -0.96083,-0.08988 -2.42543,-1.574533 -0.93335,-0.946121 -2.26255,-2.154333 -2.95377,-2.684916 l -1.25677,-0.964697 0.0196,-1.996152 c 0.0108,-1.097884 0.10008,-2.509453 0.19844,-3.136819 l 0.17882,-1.140667 2.64583,2.393165 2.64584,2.393164 3.00752,0.0043 3.00753,0.0043 1.02737,1.058636 c 1.003,1.03353 1.02737,1.104458 1.02737,2.990805 0,1.838254 -0.0424,1.973274 -0.87249,2.777822 -0.81203,0.78705 -1.00048,0.845653 -2.71933,0.845653 -1.55106,0 -1.92332,-0.08934 -2.32447,-0.557846 z m 7.17306,-0.357465 c -0.65107,-0.784842 -0.7276,-1.085784 -0.7276,-2.860885 0,-1.807516 0.057,-2.021118 0.64139,-2.404034 0.35276,-0.23114 0.71797,-0.661552 0.81158,-0.956471 0.15801,-0.49786 0.39129,-0.536571 3.26121,-0.541187 l 3.09102,-0.005 2.64584,-2.241446 c 1.4552,-1.232795 2.71955,-2.242589 2.80965,-2.243986 0.25911,-0.004 0.49155,1.812575 0.49473,3.866366 l 0.003,1.884531 -1.25677,1.137117 c -0.69123,0.625414 -2.04483,1.877208 -3.00802,2.781764 -1.37734,1.293504 -1.88733,1.618633 -2.38864,1.522802 -0.42213,-0.0807 -0.80512,0.06349 -1.13403,0.426933 -0.42309,0.467502 -0.79426,0.54595 -2.50615,0.529677 -1.94287,-0.01847 -2.03365,-0.04819 -2.73712,-0.896209 z m -35.72123,-5.370964 -5.22304,-5.227942 v -2.577266 -2.577266 h -0.78389 c -0.66328,0 -0.9524,-0.248142 -1.87912,-1.612799 l -1.09523,-1.612798 0.55483,-1.449868 c 0.38059,-0.994546 0.47805,-1.589009 0.31033,-1.89293 -0.13447,-0.243685 -1.08635,-1.273308 -2.11529,-2.288051 -1.83849,-1.813126 -2.33229,-2.788824 -1.40777,-2.781605 0.25466,0.002 1.46552,0.947848 2.6908,2.10191 1.80816,1.703068 2.3157,2.051238 2.69458,1.848468 0.25674,-0.137405 1.17074,-0.249827 2.03111,-0.249827 1.43381,0 1.64495,0.07831 2.53094,0.938778 0.93674,0.90975 0.96663,0.997923 0.96663,2.851545 0,1.227451 -0.13511,2.105666 -0.37711,2.451161 -0.35485,0.506619 -0.18329,0.716898 2.90691,3.563074 1.8062,1.663574 3.34138,3.174196 3.41151,3.356936 0.17393,0.45325 -0.11037,1.126005 -0.47584,1.126005 -0.16431,0 -1.78868,-1.485515 -3.60971,-3.301144 -2.75769,-2.749502 -3.41045,-3.274908 -3.90628,-3.144141 -0.55563,0.146536 -0.59532,0.300304 -0.59532,2.306411 v 2.149409 l 4.93834,4.94347 4.93833,4.94347 -0.44652,0.681471 c -0.24558,0.374809 -0.53418,0.681471 -0.64133,0.681471 -0.10715,0 -2.54519,-2.352574 -5.41786,-5.227942 z m 63.46464,4.809427 c -0.0883,-0.230183 -0.1606,-0.610382 -0.1606,-0.844887 0,-0.234505 2.14313,-2.589471 4.7625,-5.233258 l 4.7625,-4.806885 v -2.090696 c 0,-1.912566 -0.0507,-2.113461 -0.59531,-2.357905 -0.53831,-0.241621 -0.90377,0.04375 -3.8164,2.979968 -1.77159,1.785948 -3.4087,3.247178 -3.63802,3.247178 -0.26415,0 -0.41694,-0.233579 -0.41694,-0.63741 0,-0.478741 0.81941,-1.383449 3.29172,-3.634397 2.93635,-2.673436 3.25055,-3.042473 2.91042,-3.418319 -0.26037,-0.287699 -0.3813,-1.048054 -0.3813,-2.397323 0,-1.951894 0.0127,-1.988412 1.04312,-2.994578 l 1.04313,-1.018587 2.13438,0.146293 2.13437,0.146293 1.91573,-1.956783 c 1.97441,-2.016724 2.84177,-2.43573 2.84177,-1.372812 0,0.380823 -0.71733,1.311014 -2.02666,2.628075 l -2.02666,2.038617 0.67309,1.552028 0.6731,1.552028 -1.01211,1.417046 c -1.13715,1.592132 -1.4581,1.854558 -2.27524,1.860361 -0.53985,0.0038 -0.57541,0.146183 -0.66146,2.647859 l -0.0909,2.643808 -5.15683,5.1614 c -2.83626,2.83877 -5.29406,5.161401 -5.4618,5.161401 -0.16773,0 -0.37723,-0.188332 -0.46556,-0.418515 z m -8.80636,-1.857002 c -0.17891,-0.466236 -0.0261,-1.176449 1.21379,-5.640188 0.46151,-1.661502 0.79871,-3.209314 0.74933,-3.439583 -0.0932,-0.434699 -0.64264,1.106509 -2.04375,5.732892 -0.45173,1.491588 -0.88605,2.711979 -0.96516,2.711979 -0.0791,0 -0.66799,-0.376435 -1.30865,-0.836521 -1.36089,-0.977316 -2.08552,-2.323799 -2.62762,-4.882572 -0.76325,-3.602626 -0.4563,-5.377334 1.2704,-7.345042 1.00909,-1.149937 1.21775,-1.271377 1.91965,-1.117214 0.54611,0.119947 1.05676,0.567541 1.66592,1.460226 0.48313,0.707995 1.2257,1.61997 1.65014,2.026611 0.42444,0.406642 0.77171,0.881973 0.77171,1.056292 0,0.17432 0.29766,0.511976 0.66146,0.750349 0.63641,0.416989 0.66146,0.539179 0.66146,3.226228 v 2.792825 l -1.6045,1.963576 c -0.88247,1.079966 -1.66011,1.963575 -1.72809,1.963575 -0.068,0 -0.19672,-0.190545 -0.28609,-0.423433 z m -42.08809,-1.845033 c -1.39381,-1.685622 -1.65014,-2.153013 -1.63132,-2.974551 0.0467,-2.037289 0.40635,-3.919356 0.84505,-4.421759 1.09682,-1.256083 1.46623,-1.714944 2.90563,-3.609226 2.08143,-2.739222 2.83607,-2.696786 4.72989,0.265977 0.81842,1.280384 0.80068,5.839872 -0.0313,8.049272 -0.65917,1.750409 -1.94805,3.251213 -3.02406,3.521274 -0.95211,0.238964 -1.00095,0.15206 -2.01388,-3.583271 -0.45476,-1.676973 -0.96496,-3.46576 -1.13378,-3.975083 -0.30208,-0.911366 -0.30833,-0.914605 -0.39436,-0.204387 -0.0481,0.39691 0.39791,2.45981 0.99107,4.584224 1.43258,5.130735 1.28654,5.406569 -1.24292,2.34753 z m 48.41901,0.05664 c -0.4728,-0.539539 -1.04732,-1.267436 -1.27673,-1.617549 -0.52334,-0.798722 -0.83891,-5.205078 -0.43281,-6.043401 0.15407,-0.318044 0.66732,-1.554581 1.14056,-2.74786 0.47324,-1.19328 0.9539,-2.111838 1.06813,-2.04124 0.11423,0.0706 0.28119,0.520114 0.37101,0.998923 0.12613,0.67234 -0.0867,1.455655 -0.93454,3.44019 -0.60383,1.413295 -1.05238,2.706103 -0.99677,2.872907 0.0556,0.166804 0.62034,-0.912785 1.25499,-2.399086 0.75661,-1.77194 1.2279,-2.585759 1.36882,-2.363689 0.30557,0.481548 0.26219,4.107781 -0.0642,5.365761 -0.15102,0.582083 -0.35654,2.061313 -0.45671,3.287178 l -0.18212,2.228846 z m -53.32813,0.09516 c -1.3831,-7.027716 -1.44275,-8.919599 -0.35458,-11.244791 l 0.74293,-1.5875 0.89156,1.719791 c 0.49035,0.945886 0.89733,1.948542 0.90439,2.228125 0.007,0.279583 0.17582,0.696302 0.37502,0.926042 0.28227,0.325544 0.31378,0.855546 0.14284,2.402083 -0.38955,3.524426 -0.50516,3.901108 -1.56013,5.083569 -0.99637,1.11678 -1.01385,1.124015 -1.14203,0.472681 z m 0.95957,-7.430488 c -0.55937,-1.037751 -1.04917,-1.690942 -1.09592,-1.461519 -0.0465,0.228146 0.37023,1.249798 0.92604,2.270337 0.55582,1.020538 1.04898,1.678222 1.09592,1.461519 0.0469,-0.216702 -0.36978,-1.238354 -0.92604,-2.270337 z m 15.39278,1.860086 c -1.45521,-1.300097 -2.73513,-2.364552 -2.84427,-2.365455 -0.10914,-9.04e-4 -0.19844,-0.289822 -0.19844,-0.642042 0,-0.719531 -0.79189,-0.580612 7.6271,-1.33801 4.30868,-0.387623 4.3218,-0.387151 5.09323,0.183192 0.74218,0.548722 0.77342,0.65688 0.77342,2.678142 0,2.053772 -0.0228,2.12845 -0.91293,2.992951 l -0.91293,0.886624 -2.98967,-0.01579 -2.98968,-0.01579 z m 11.82586,1.52291 c -0.816,-0.841892 -0.84565,-0.951136 -0.84565,-3.114833 v -2.24234 l 0.87775,-0.472705 c 0.83464,-0.449483 1.11084,-0.451857 5.6224,-0.04832 7.26744,0.65004 6.99359,0.598646 6.99359,1.312513 0,0.360616 -0.2682,0.790554 -0.64869,1.039859 -0.35679,0.233774 -1.72281,1.31903 -3.03562,2.41168 l -2.38693,1.986637 h -2.8656 -2.8656 z m -23.33524,-5.975173 c 0,-0.273716 0.29766,-1.288466 0.66146,-2.254999 0.60151,-1.59807 0.66146,-2.128965 0.66146,-5.858006 V 23.86722 l 0.66146,-0.30138 c 0.3638,-0.16576 0.66146,-0.401332 0.66146,-0.523495 0,-0.122162 0.14882,-0.222981 0.33073,-0.22404 0.1819,-0.0011 1.40229,-0.422098 2.71197,-0.935639 1.45872,-0.571977 2.01141,-0.876826 1.42662,-0.786879 -0.52505,0.08076 -1.68401,0.432673 -2.57547,0.782032 l -1.62083,0.635199 -0.3369,-0.706289 c -0.65064,-1.364008 -2.84654,-0.85842 -2.84654,0.655393 0,0.340015 0.23812,0.76692 0.52917,0.948679 0.49006,0.306047 0.52916,0.617015 0.52916,4.207705 0,3.108323 -0.10323,4.211451 -0.52053,5.562516 -0.61618,1.99497 -0.96063,2.485051 -1.89946,2.702514 -0.65519,0.151761 -0.74288,0.05559 -1.36396,-1.495841 -1.31245,-3.27845 -1.52752,-6.101899 -0.6802,-8.929995 0.34899,-1.164814 2.89587,-4.196421 4.04444,-4.81419 0.30902,-0.166207 2.76486,-0.383014 5.57909,-0.492535 2.76489,-0.1076 5.22468,-0.274022 5.4662,-0.369825 0.30462,-0.120836 0.49329,-0.0035 0.61598,0.383064 0.0973,0.306489 0.42369,0.787206 0.72537,1.06826 l 0.5485,0.511008 -1.2237,1.398271 c -2.85621,3.263649 -6.75619,7.204126 -6.94614,7.018259 -0.2626,-0.256953 3.35347,-5.619092 5.30361,-7.864533 0.9271,-1.067482 1.36347,-1.757484 1.15533,-1.826862 -0.54254,-0.180849 -2.85454,2.602353 -4.95671,5.966944 -1.39716,2.236185 -2.1923,3.246266 -2.77813,3.529079 -0.71714,0.346208 -0.82351,0.536126 -0.84278,1.504719 -0.0176,0.885189 -0.30064,1.511486 -1.4049,3.108854 -0.76056,1.100193 -1.43525,2.000351 -1.4993,2.000351 -0.0641,0 -0.11646,-0.223949 -0.11646,-0.497665 z m -0.62434,-12.841046 c -0.1405,-0.365856 -0.9694,1.522456 -0.94447,2.151568 0.0103,0.259335 0.25182,-0.05403 0.53675,-0.696359 0.28493,-0.642333 0.46841,-1.297177 0.40772,-1.455209 z m 47.20576,12.959617 c -0.2079,-0.250506 -0.65047,-0.406842 -1.0241,-0.361759 -1.1179,0.13489 -1.64242,-1.923771 -1.86735,-7.328938 l -0.18717,-4.497916 0.69058,-0.700354 c 0.62527,-0.634117 0.72104,-0.65914 1.01263,-0.264583 0.22039,0.298222 0.26486,0.310499 0.14086,0.03889 -0.0996,-0.218281 -0.46734,-0.783828 -0.81708,-1.256771 -0.50646,-0.68487 -0.82414,-0.859896 -1.56077,-0.859896 -0.73526,0 -1.01202,0.151831 -1.3499,0.740545 l -0.42501,0.740545 -0.95174,-0.454342 c -1.15852,-0.553054 -2.92569,-0.939128 -2.53924,-0.554748 0.14552,0.14474 0.91942,0.449791 1.71979,0.677891 0.80036,0.228099 1.87192,0.72223 2.38125,1.098067 l 0.92604,0.68334 0.3139,4.699436 c 0.17265,2.584689 0.48403,5.1696 0.69197,5.744246 0.20793,0.574646 0.46445,1.282936 0.57005,1.573978 0.29625,0.816541 -1.33397,-1.158925 -1.96508,-2.38125 -0.30054,-0.582083 -0.63645,-1.594114 -0.74645,-2.248958 -0.16161,-0.962114 -0.3152,-1.207135 -0.80023,-1.276649 -0.42328,-0.06066 -1.03456,-0.762682 -2.07348,-2.38125 -2.59079,-4.036277 -4.38341,-6.378426 -5.29232,-6.914699 -0.48665,-0.28713 -0.88482,-0.459687 -0.88482,-0.383458 0,0.07623 0.72205,0.994947 1.60456,2.041597 2.29359,2.720201 5.33491,7.258462 5.0021,7.464149 -0.23879,0.147579 -3.86219,-3.455925 -6.96102,-6.922797 l -0.9806,-1.097065 0.60134,-0.960754 0.60133,-0.960754 3.83646,0.147236 c 7.96847,0.305817 8.74263,0.547788 10.64258,3.326464 1.68316,2.461602 2.16246,5.382683 1.36607,8.325412 -0.23473,0.867319 -0.62528,2.335047 -0.8679,3.261618 -0.3915,1.495188 -0.4823,1.635056 -0.80725,1.243522 z m -39.48347,-2.068301 c -2.19278,-2.361935 -2.1477,-2.551741 1.50101,-6.32044 l 2.91042,-3.006122 4.36562,0.132291 c 4.1103,0.124555 4.41592,0.170019 5.22552,0.777361 l 0.8599,0.64507 v 3.248225 c 0,3.021407 -0.0385,3.268838 -0.55157,3.543415 -0.30336,0.162354 -0.71208,0.679366 -0.90827,1.148915 l -0.35671,0.853727 -5.111,0.318382 c -2.81104,0.175111 -5.40095,0.317131 -5.75535,0.315602 -0.44832,-0.0019 -1.11142,-0.505875 -2.17957,-1.656426 z m 21.74163,1.242542 c -1.96453,-0.186678 -3.78318,-0.349142 -4.04144,-0.361031 -0.25826,-0.01189 -0.57305,-0.289506 -0.69953,-0.616928 -0.12648,-0.327422 -0.54025,-0.883957 -0.91949,-1.236746 -0.66773,-0.621152 -0.68953,-0.740068 -0.68953,-3.761003 0,-2.966123 0.0293,-3.134942 0.59531,-3.432088 0.32742,-0.171884 0.69052,-0.473729 0.80689,-0.670767 0.16491,-0.279213 1.2166,-0.35825 4.76702,-0.35825 h 4.55542 l 2.81203,2.844271 c 3.62971,3.671332 3.68295,3.905409 1.43148,6.293777 l -1.61185,1.709868 -1.71722,-0.03584 c -0.94446,-0.01971 -3.32455,-0.188581 -5.28909,-0.37526 z m -41.86769,-16.187734 c -7.50472,-7.504719 -7.60927,-7.596149 -8.0185,-7.01189 -0.37622,0.53712 -0.63173,0.591977 -2.75723,0.591977 h -2.3426 l -1.5254,-2.417518 -1.5254,-2.4175181 0.75365,-1.352794 c 0.41451,-0.744037 1.03226,-1.799278 1.37278,-2.3449819 l 0.61912,-0.992187 h 2.64924 2.64924 l 1.05557,1.6536459 c 1.33027,2.083975 1.46993,2.630894 0.98259,3.847889 l -0.39273,0.980756 7.40528,7.4427021 7.40529,7.4427 -0.36352,1.090543 -0.36351,1.090543 z m 62.69143,7.142821 c -0.0622,-0.110701 -0.20052,-0.558462 -0.30741,-0.995025 -0.18739,-0.765415 0.0714,-1.053553 7.25043,-8.071593 l 7.44476,-7.2778451 -0.41969,-1.188823 c -0.51532,-1.459712 -0.42639,-1.841021 0.91256,-3.912636 l 1.06116,-1.6418109 h 2.61059 c 2.15907,0 2.67908,0.08009 3.00653,0.463021 0.67673,0.7914049 2.33192,3.6877789 2.33192,4.0805669 0,0.205329 -0.59185,1.335037 -1.31521,2.5104621 -1.46715,2.384042 -1.6303,2.470949 -4.6386,2.470949 -1.14772,0 -1.75518,-0.121532 -1.98369,-0.396874 -0.18116,-0.218282 -0.4262,-0.396875 -0.54453,-0.396875 -0.11833,0 -3.3757,3.112591 -7.2386,6.91687 -7.17175,7.062913 -7.97231,7.791882 -8.17022,7.439613 z m -37.49248,-2.14624 c 0,-0.383561 2.63161,-2.671629 3.25066,-2.826306 0.32219,-0.0805 1.70428,-0.111461 3.07131,-0.0688 1.93152,0.06028 2.54486,0.171917 2.75171,0.500859 0.19992,0.317903 0.12455,0.56493 -0.3027,0.992188 -0.3129,0.312893 -0.5689,0.807022 -0.5689,1.098064 0,0.506407 -0.17639,0.529167 -4.10104,0.529167 -2.25558,0 -4.10104,-0.101328 -4.10104,-0.225174 z m 12.01978,-0.416812 c -0.0886,-0.353093 -0.38183,-0.841716 -0.65157,-1.08583 -0.40172,-0.363557 -0.43377,-0.534589 -0.17714,-0.945514 0.27204,-0.435602 0.646,-0.50167 2.83954,-0.50167 2.95501,0 4.0149,0.40778 5.46589,2.102935 l 0.91765,1.072065 h -4.11662 -4.11662 z m 60.64934,-1.164785 c -1.39229,-1.538472 0.7418,-3.628133 2.20796,-2.161979 0.72185,0.721854 0.6641,1.44295 -0.16798,2.097463 -0.85978,0.676302 -1.46888,0.695565 -2.03998,0.06452 z m -87.4649,-6.18126 c -0.0191,-4.761476 -0.18892,-6.039528 -0.69393,-5.22239 -0.1086,0.175718 -1.45905,-0.955 -3.39184,-2.8399551 -1.76626,-1.722554 -4.75518,-4.6201969 -6.64205,-6.439208 l -3.43066,-3.307291 0.0843,-12.0788949 0.0843,-12.078896 -0.59677,-0.807177 c -1.19886,-1.621539 -0.42385,-3.477738 1.45203,-3.477738 1.0336,0 2.00118,0.925898 2.00118,1.914981 0,0.379638 -0.3056,1.053437 -0.67911,1.49733 l -0.67911,0.807078 0.0838,11.4502 c 0.0525,7.1773975 0.18415,11.5982999 0.35271,11.8470749 0.74885,1.105179 11.52732,11.453475 11.70102,11.234025 0.27777,-0.350932 0.0929,-15.7781594 -0.18704,-15.6051714 -0.42039,0.259816 -0.99655,-0.153205 -1.82717,-1.309819 -1.11407,-1.551313 -1.10197,-2.6494205 0.0458,-4.1541935 l 0.87335,-1.145048 h 1.94175 c 1.92591,0 1.94831,0.0081 2.74776,0.995871 0.67607,0.835299 0.7957,1.195373 0.74198,2.233188 -0.0752,1.4537865 -0.60578,2.4641575 -1.58148,3.0118985 l -0.70193,0.394051 0.0902,9.7250125 0.0902,9.725014 2.48948,2.408345 c 1.36921,1.324591 2.48948,2.507167 2.48948,2.627946 0,0.120779 -0.3169,0.427237 -0.70422,0.681018 l -0.70421,0.461418 -1.62771,-1.778236 c -0.89524,-0.978029 -1.70943,-1.778236 -1.80933,-1.778236 -0.0999,0 -0.18162,1.068506 -0.18162,2.374456 0,2.354297 -0.007,2.377835 -0.76984,2.772558 -0.42342,0.218957 -0.83074,0.549436 -0.90516,0.734399 -0.0744,0.184963 -0.1447,-2.008162 -0.15619,-4.87361 z m 48.99317,4.302038 c -0.8489,-0.708983 -0.8599,-0.747537 -0.8599,-3.014005 0,-1.262709 -0.0927,-2.295836 -0.20608,-2.295836 -0.11334,0 -0.97311,0.773907 -1.91058,1.719792 -0.93748,0.945886 -1.78405,1.719792 -1.88128,1.719792 -0.0972,0 -0.45785,-0.231396 -0.80139,-0.514213 l -0.62462,-0.514214 2.72179,-2.741298 2.72179,-2.741297 -0.076,-9.378343 -0.076,-9.3783435 -1.11846,-1.058332 c -1.00817,-0.953982 -1.12357,-1.192347 -1.17039,-2.417489 -0.0447,-1.1700825 0.0651,-1.5069565 0.78955,-2.4216295 0.76808,-0.969784 0.98174,-1.07875 2.44907,-1.249052 1.52537,-0.177037 1.64828,-0.147913 2.40365,0.569546 0.9007,0.855488 1.80596,2.470494 1.80596,3.2218745 0,0.673573 -2.03801,2.958208 -2.63888,2.958208 -0.33984,0 -0.5295,0.278591 -0.65878,0.967732 -0.2037,1.085839 0.11686,14.9072664 0.34575,14.9072664 0.0806,0 2.11724,-1.945385 4.52581,-4.323079 2.40857,-2.377693 5.06383,-4.95480699 5.90058,-5.72692099 l 1.52135,-1.40384201 V -14.115492 -25.839044 l -0.66146,-0.661458 c -0.8393,-0.839302 -0.84383,-1.850104 -0.012,-2.681913 0.92495,-0.924952 2.03515,-0.861907 2.89892,0.164619 0.85723,1.018766 0.85598,1.323374 -0.01,2.352169 l -0.69467,0.825571 0.19577,12.142097 0.19577,12.1420969 -2.9989,2.861486 c -1.6494,1.5738171 -4.58646,4.379532 -6.52681,6.234923 -2.02044,1.931971 -3.74559,3.3734371 -4.03734,3.3734371 -0.48338,0 -0.5131,0.269142 -0.58106,5.262964 l -0.0716,5.262963 z m -30.49323,-0.728725 c 0,-0.390804 -0.25443,-0.981382 -0.5654,-1.312397 l -0.56541,-0.601846 0.86552,-2.400335 c 0.47604,-1.320183 0.8076,-2.458258 0.7368,-2.529055 -0.13801,-0.138011 -2.05901,3.921436 -2.05901,4.351089 0,0.141361 -0.26789,0.334835 -0.59531,0.429943 -0.32742,0.09511 -0.83344,0.430553 -1.12448,0.745434 -0.50308,0.544285 -0.69577,0.565988 -3.90845,0.440218 l -3.37928,-0.132292 0.81741,-0.990432 c 1.12182,-1.359272 3.36676,-3.040698 6.23375,-4.668969 1.3251,-0.752572 2.89535,-1.784377 3.48944,-2.292901 1.07865,-0.923277 1.07964,-0.925879 0.69959,-1.8354571 -0.20932,-0.500979 -0.38058,-1.699747 -0.38058,-2.66393 0,-1.490052 -0.0742,-1.772475 -0.49488,-1.882472 -0.66465,-0.17381 -1.85416,-4.45951399 -1.37013,-4.93646099 0.2391,-0.235593 0.40211,-0.187997 0.68946,0.201308 0.57851,0.783772 0.66357,0.398324 0.25438,-1.15282701 -0.57084,-2.163953 -0.76642,-4.1587304 -0.42824,-4.3677374 0.16009,-0.09894 0.29107,-0.470522 0.29107,-0.825736 0,-0.397693 0.15249,-0.645842 0.39688,-0.645842 0.21828,0 0.39687,-0.174625 0.39687,-0.388056 0,-0.773763 1.81839,-2.233199 3.32996,-2.6726255 2.35248,-0.683885 5.67207,-0.195515 7.69916,1.1326815 0.88945,0.582789 0.62803,0.664535 -0.73165,0.228787 -1.29774,-0.4159 -4.66919,-0.754662 -4.3088,-0.432947 0.12597,0.112454 1.1435,0.578662 2.26117,1.036019 1.6621,0.680142 2.3968,0.831557 4.03489,0.831557 1.10153,0 2.00277,0.109928 2.00277,0.244283 0,0.134356 -0.30073,0.601679 -0.66829,1.038497 -0.44255,0.52595 -0.56899,0.855581 -0.37432,0.975893 0.28198,0.174272 0.21709,1.6953894 -0.1908,4.47278041 -0.14385,0.979562 -0.12597,1.015724 0.29444,0.595313 0.94936,-0.949362 1.16314,-0.324561 0.6616,1.93364899 -0.37957,1.7090691 -0.7957,2.645834 -1.17532,2.645834 -0.35492,0 -0.65635,1.363235 -0.66106,2.989701 -0.002,0.55293 -0.16876,1.326836 -0.37147,1.719792 -0.54422,1.0550101 -0.19263,2.9369371 1.26344,6.7627851 l 0.69077,1.814986 -0.68251,0.811114 c -0.44469,0.528491 -0.64154,1.025419 -0.56493,1.426159 0.11585,0.606027 0.0834,0.615046 -2.21336,0.615046 -2.08403,0 -2.40243,-0.06627 -3.00601,-0.625652 -0.60221,-0.558101 -0.67509,-0.829488 -0.67509,-2.513542 0,-1.082204 -0.11292,-1.88789 -0.26459,-1.88789 -0.15229,0 -0.26458,0.821944 -0.26458,1.936662 0,1.737581 -0.0682,1.995962 -0.66347,2.513542 -0.57601,0.500829 -0.97713,0.57688 -3.04271,0.57688 h -2.37924 z m 71.42078,0.293528 c -0.28423,-0.342478 -0.0951,-0.649866 1.22948,-1.998742 2.65801,-2.706674 4.08863,-3.816037 4.3627,-3.38304 0.1305,0.206165 0.23762,0.434377 0.23804,0.507138 4.3e-4,0.07276 -1.23562,1.290383 -2.74678,2.705828 -2.37549,2.225037 -2.79304,2.51873 -3.08344,2.168816 z m -125.42309,-0.610229 c -0.54289,-0.439605 -0.57807,-0.579397 -0.29957,-1.190625 0.34086,-0.748121 1.29596,-0.940548 1.86147,-0.375039 0.45997,0.459966 0.39344,1.713411 -0.10102,1.90315 -0.6301,0.241794 -0.79157,0.204493 -1.46088,-0.337486 z m 118.92684,-0.147918 c -0.23614,-0.615354 -0.01,-1.248297 0.58799,-1.644527 0.49021,-0.324907 0.63241,-0.308564 1.18111,0.135744 0.55155,0.44662 0.58725,0.585335 0.30826,1.197664 -0.24006,0.526855 -0.50879,0.692539 -1.12327,0.692539 -0.45936,0 -0.87086,-0.164505 -0.95409,-0.38142 z m -48.1846,-0.06652 c 0.25743,-0.06708 0.61462,-0.06267 0.79375,0.0098 0.17913,0.07247 -0.0315,0.127362 -0.46805,0.12197 -0.43657,-0.0054 -0.58313,-0.06469 -0.3257,-0.131774 z m 0.72013,-0.321234 c -1.82484,-0.239938 -3.00746,-1.299724 -3.81355,-3.417438 -0.82382,-2.164304 -1.48914,-4.354784 -1.36148,-4.482451 0.16535,-0.165346 5.77793,3.153661 7.30353,4.318954 0.80554,0.615285 2.05569,1.672081 2.77813,2.348437 l 1.31352,1.229739 -2.51354,-0.142119 c -1.63894,-0.09267 -2.32942,-0.0569 -1.98438,0.102785 l 0.52917,0.244905 -0.52917,-0.02297 c -0.29104,-0.01263 -1.06604,-0.09356 -1.72223,-0.179842 z M -274.96106,7.0350279 c -4.58391,-4.4511889 -10.03102,-9.766353 -12.10469,-11.8114774 l -3.77031,-3.718406 v -4.8162565 -4.816262 l -0.92604,-0.706327 c -0.83229,-0.634815 -0.92605,-0.835286 -0.92605,-1.980096 0,-1.878299 0.70486,-2.66805 2.38125,-2.66805 1.07592,0 1.3745,0.1144 1.83863,0.704449 0.30477,0.387446 0.62713,0.995322 0.71636,1.350836 0.21707,0.864887 -0.52991,2.375155 -1.36235,2.75444 l -0.66347,0.302298 v 4.630071 4.6300725 l 1.5278,1.47902 c 13.31489,12.8897954 21.13104,20.3292215 21.64697,20.6036155 0.48613,0.258549 0.63773,0.557311 0.63773,1.256771 0,0.562808 -0.12788,0.913877 -0.33073,0.907985 -0.1819,-0.0053 -4.0812,-3.651488 -8.6651,-8.1026771 z m 61.91249,7.2056421 c 0,-0.519993 0.12243,-0.945442 0.27207,-0.945442 0.23942,0 8.1119,-7.5078131 19.77012,-18.8543185 l 3.77031,-3.669502 v -4.3590975 -4.359103 l -1.05833,-1.006768 c -1.36966,-1.302928 -1.4661,-2.573729 -0.28494,-3.754888 1.6616,-1.661595 4.51827,-0.607739 4.51827,1.666836 0,1.33954 -0.18937,1.703457 -1.21688,2.338491 l -0.89978,0.5561 v 4.978095 4.9780955 l -0.99219,0.865608 c -0.5457,0.476084 -5.97359,5.6974014 -12.06197,11.6029275 -6.08838,5.905527 -11.23784,10.775817 -11.44323,10.822868 -0.26783,0.06135 -0.37345,-0.18185 -0.37345,-0.859896 z m 45.05323,0.618746 c -1.20538,-0.448095 -1.01276,-2.707831 0.258,-3.02677 0.33805,-0.08485 0.93741,-0.03155 1.33191,0.118443 0.58412,0.222084 0.71728,0.438219 0.71728,1.164292 0,1.304784 -1.15012,2.174172 -2.30719,1.744035 z m -144.89242,-0.460542 c -0.5104,-0.563982 -0.57892,-1.915108 -0.12038,-2.373646 0.84093,-0.840936 2.8575,0.178449 2.8575,1.444483 0,1.241015 -1.87796,1.878521 -2.73712,0.929163 z m 60.68086,-4.9521241 v -3.583896 l -3.61167,-3.692146 c -2.50436,-2.56016399 -3.79234,-3.692146 -4.20094,-3.692146 -0.79545,0 -1.27872,-0.641816 -1.07986,-1.434138 0.23588,-0.939808 1.19668,-1.1653894 1.79844,-0.422244 0.2637,0.325649 0.47945,0.728294 0.47945,0.894768 0,0.285827 5.8986,6.0210311 6.38608,6.2091831 0.12639,0.04878 0.2285,-5.7662491 0.2285,-13.0128975 V -22.387854 l -0.59531,-0.182396 c -0.32742,-0.100317 -1.10133,-0.592562 -1.71979,-1.093876 -1.12147,-0.909038 -1.12448,-0.91626 -1.12448,-2.694147 0,-1.656822 0.0632,-1.851687 0.89558,-2.760411 0.85414,-0.932505 0.97408,-0.977746 2.59214,-0.977746 1.61519,0 1.74354,0.04812 2.67629,1.003343 0.93031,0.952723 0.97974,1.09175 0.97974,2.755639 0,1.725971 -0.0169,1.767539 -1.12448,2.766969 l -1.12448,1.014674 0.0684,14.1798085 0.0684,14.1798074 1.99163,2.1438 c 1.82559,1.965069 1.94879,2.1667281 1.47775,2.4188201 -0.44041,0.235699 -0.7255,0.04645 -1.99391,-1.3235851 l -1.48003,-1.598607 v 2.264039 c 0,1.9112621 -0.0824,2.3464931 -0.52916,2.7932061 -0.29105,0.291042 -0.64823,0.529167 -0.79375,0.529167 -0.16337,0 -0.26459,-1.371021 -0.26459,-3.5838951 z m 24.54011,3.2150401 c -0.38151,-0.289158 -0.46509,-0.78831 -0.47474,-2.8353131 l -0.0117,-2.484374 -1.54255,1.653646 c -1.61062,1.7266071 -1.8862,1.8791991 -2.36086,1.3072601 -0.22111,-0.266416 0.199,-0.8300121 1.81968,-2.4411891 l 2.10716,-2.094802 V -8.4054475 -22.57792 l -1.19062,-1.16851 c -1.15281,-1.131397 -1.19063,-1.219677 -1.19063,-2.779517 0,-1.516164 0.0591,-1.668685 1.00335,-2.590744 0.94923,-0.926901 1.09626,-0.979739 2.72622,-0.979739 1.60151,0 1.78245,0.06146 2.56853,0.872492 0.78941,0.814462 0.84565,0.997116 0.84565,2.746253 v 1.87376 l -1.13141,0.927112 c -0.62228,0.509911 -1.36642,0.972331 -1.65365,1.0276 -0.50485,0.09715 -0.52498,0.382122 -0.60507,8.563615 -0.0456,4.6547185 -0.002,10.6503869 0.0961,13.32370791 l 0.17893,4.86058409 3.14505,-3.22583909 c 1.72978,-1.774212 3.14505,-3.37747401 3.14505,-3.56280601 0,-0.185331 0.2451,-0.558774 0.54466,-0.829872 0.41624,-0.376691 0.65017,-0.426775 0.99219,-0.212423 0.92381,0.578978 0.58044,2.210814 -0.46519,2.210814 -0.24808,0 -1.98967,1.62810901 -3.87021,3.61802 l -3.41915,3.61802 -0.1323,3.570424 c -0.0753,2.0332371 -0.2462,3.6042811 -0.39687,3.6490641 -0.14552,0.04325 -0.47294,-0.07928 -0.7276,-0.2723 z m 61.71405,-0.999682 c 0,-0.170611 0.59575,-0.99515 1.32389,-1.8323081 1.21518,-1.397124 1.30088,-1.582624 1.04366,-2.259156 -0.63741,-1.676527 0.31724,-3.006665 2.15791,-3.006665 1.13802,0 1.34086,0.09494 1.97273,0.923358 0.78853,1.033816 0.75041,1.710624 -0.16164,2.87011 -0.47175,0.599736 -0.75774,0.704944 -1.92398,0.707787 -1.32749,0.0032 -1.40924,0.04824 -2.64318,1.4552081 -1.2487,1.423796 -1.76939,1.759759 -1.76939,1.141666 z m -148.90956,-1.28205 c -1.11122,-1.2711691 -1.1689,-1.2998541 -2.30138,-1.1446301 -1.04268,0.142915 -1.24286,0.07794 -1.95552,-0.634716 -1.0299,-1.029897 -1.27182,-1.993344 -0.71422,-2.844351 0.66501,-1.014936 1.48727,-1.4094659 2.62831,-1.261103 1.39872,0.181868 2.11412,1.302569 1.90715,2.987639 -0.14253,1.160393 -0.10489,1.240885 1.16522,2.49189 1.23268,1.2141471 1.45798,1.7487271 0.72533,1.7210281 -0.17331,-0.0066 -0.82801,-0.598643 -1.45489,-1.315757 z m 3.82971,0.886698 c -0.29022,-0.290224 -0.20656,-5.6444441 0.0882,-5.6444441 0.16035,0 0.26458,1.146528 0.26458,2.910416 0,2.9055851 -0.0207,3.0660951 -0.35278,2.7340281 z m 142.6986,-2.9703031 c 0,-2.552985 -0.0749,-3.175427 -0.39687,-3.298988 -0.47589,-0.182616 -0.52974,-1.5177089 -0.0794,-1.9680699 0.17463,-0.174625 0.56754,-0.3175 0.87313,-0.3175 1.18257,0 1.6555,1.557281 0.66146,2.1780699 -0.48043,0.300034 -0.52917,0.617015 -0.52917,3.441825 0,1.8978481 -0.10319,3.1113551 -0.26458,3.1113551 -0.16156,0 -0.26459,-1.225286 -0.26459,-3.1466921 z m -143.34528,-3.350602 c -1.03102,-0.7221539 -0.62323,-2.2339559 0.60258,-2.2339559 1.16926,0 1.61339,1.387475 0.70677,2.2079509 -0.59085,0.534721 -0.58327,0.53457 -1.30935,0.026 z m 39.28136,-7.431915 c -0.10005,-0.100046 -0.1819,-2.7188444 -0.1819,-5.8195504 v -5.6376435 l -0.78927,-0.408148 c -0.96986,-0.50153 -1.59198,-1.644999 -1.59198,-2.926052 0,-1.441352 1.39512,-2.764806 2.91452,-2.764806 0.97454,0 1.24511,0.141952 2.14313,1.124362 0.56527,0.618399 1.02776,1.388266 1.02776,1.710815 0,1.152003 -0.85301,2.444351 -1.92579,2.917662 l -1.03104,0.454894 0.0794,5.6748025 c 0.0749,5.3548414 -0.0311,6.2874164 -0.64482,5.6736704 z m 65.17018,-5.5952414 v -5.7661115 l -0.8599,-0.253153 c -0.5946,-0.17505 -0.99776,-0.538852 -1.30676,-1.179194 -0.89531,-1.855337 -0.87407,-2.235492 0.19077,-3.41414 0.91083,-1.008181 1.07657,-1.083776 2.37614,-1.083776 1.26794,0 1.47288,0.08641 2.21817,0.935248 0.48843,0.556292 0.82076,1.226338 0.82017,1.653646 -0.001,0.989282 -0.87241,2.328967 -1.83939,2.829013 l -0.80545,0.416515 v 5.8140385 c 0,4.9916444 -0.0561,5.8140374 -0.39688,5.8140374 -0.34064,0 -0.39687,-0.817068 -0.39687,-5.7661174 z m -51.2657,-7.0026365 -4.82597,-4.831258 v -4.711506 -4.711508 l -0.95974,-0.905151 c -0.83626,-0.7887 -0.93842,-1.016181 -0.79403,-1.76817 0.19574,-1.019442 1.26825,-2.053644 2.12972,-2.053644 0.81895,0 1.90574,0.890214 2.11768,1.734638 0.17552,0.69932 -0.68308,2.498695 -1.19229,2.498695 -0.13877,0 -0.243,2.078354 -0.243,4.845343 v 4.845344 l 4.49791,4.449041 c 2.63394,2.605318 4.49792,4.654256 4.49792,4.94424 0,0.272359 -0.0905,0.495198 -0.20112,0.495198 -0.11062,0 -2.3728,-2.174067 -5.02708,-4.831259 z m 32.61595,4.572143 c -0.28737,-0.46498 0.28887,-1.137604 4.73643,-5.528628 l 4.38832,-4.332535 v -4.531865 -4.531866 l -0.79375,-0.749172 c -0.4476,-0.422459 -0.79375,-1.022425 -0.79375,-1.375754 0,-2.122284 2.18522,-3.252809 3.5839,-1.854131 0.9318,0.931799 0.87707,2.213986 -0.13697,3.209074 l -0.7864,0.771702 -0.007,4.733122 -0.007,4.733123 -4.81316,4.858023 c -2.64725,2.671912 -4.90241,4.858023 -5.01147,4.858023 -0.10907,0 -0.27037,-0.116602 -0.35845,-0.259116 z m -15.74607,-3.861951 c -1e-5,-0.808166 0.16572,-1.234058 0.66144,-1.699767 l 0.66146,-0.621408 v -6.15844 c 0,-5.032217 -0.0684,-6.197134 -0.3742,-6.370025 -0.20581,-0.116371 -0.92019,-0.724155 -1.5875,-1.350631 -1.19241,-1.119437 -1.2133,-1.16774 -1.2133,-2.80589 v -1.666845 l 1.39605,-1.320328 c 1.94122,-1.835919 2.38949,-2.045906 3.29792,-1.54487 0.40149,0.221442 1.31344,0.931861 2.02655,1.578709 l 1.29655,1.176087 -0.15943,1.93505 c -0.15102,1.832921 -0.21246,1.980316 -1.16426,2.792692 -0.55266,0.471703 -1.2132,0.92621 -1.46786,1.010017 -0.42379,0.139465 -0.46302,0.68763 -0.46302,6.469543 0,6.186667 0.0119,6.325493 0.57547,6.720243 0.40055,0.280557 0.62542,0.792361 0.73977,1.683783 l 0.1643,1.280706 -2.19496,-0.01513 -2.19496,-0.01513 z" /></g></g></g></g></g></g></g></g></g></g></g></g></g></g></g></g></g></svg>
